<?xml version="1.0" encoding="UTF-8"?>
<svg width="313px" height="50px" viewBox="0 0 313 50" version="1.1" xmlns="http://www.w3.org/2000/svg" xmlns:xlink="http://www.w3.org/1999/xlink">
    <!-- Generator: Sketch 49.3 (51167) - http://www.bohemiancoding.com/sketch -->
    <title>Deconomy Logo</title>
    <desc>Created with Sketch.</desc>
    <defs></defs>
    <g id="Page-1" stroke="none" stroke-width="1" fill="none" fill-rule="evenodd">
        <g id="Desktop-HD-Copy-7" transform="translate(-120.000000, -1759.000000)" fill-rule="nonzero">
            <g id="Deconomy-Logo" transform="translate(120.000000, 1759.000000)">
                <path d="M85.47,11.8367347 C85.5132538,13.6009036 85.1429831,15.3501037 84.39,16.9387755 C83.7227698,18.3290482 82.7510438,19.5440549 81.55,20.4897959 C80.3575325,21.4259645 78.9994367,22.1188705 77.55,22.5306122 C76.0880994,22.9657062 74.5728132,23.1856117 73.05,23.1836735 L64.81,23.1836862 L64.81,0.602011191 L72.81,0.602040816 C74.369787,0.599292903 75.9242522,0.787717074 77.44,1.16326531 C78.8980065,1.50411466 80.2770077,2.13143747 81.5,3.01020408 C82.7179247,3.91095453 83.7056974,5.09737374 84.38,6.46938776 C85.1567659,8.144491 85.5304546,9.98459831 85.47,11.8367347 Z M79.91,11.8367347 C79.9471028,10.7452359 79.7384216,9.65959061 79.3,8.66326531 C78.9329445,7.85430095 78.372424,7.15250996 77.67,6.62244898 C76.9764561,6.11392319 76.191502,5.74984431 75.36,5.55102041 C74.4855537,5.33726788 73.5891799,5.23107057 72.69,5.23469388 L70.03,5.23460421 L70.03,18.4694486 L72.56,18.4693878 C73.4933149,18.4724581 74.423514,18.3593786 75.33,18.1326531 C76.1747603,17.9244855 76.9703022,17.5463498 77.67,17.0204082 C78.3672347,16.4848204 78.9265926,15.784485 79.3,14.9795918 C79.7339345,13.9926215 79.9425143,12.9179714 79.91,11.8367347 Z" id="Shape" fill="#FFFFFF"></path>
                <polygon id="Shape" fill="#FFFFFF" points="89.01 23.1428571 89.01 0.602040816 103.89 0.602040816 103.89 5.19387755 94.15 5.19387755 94.15 9.46938776 103.34 9.46938776 103.34 13.8469388 94.15 13.8469388 94.15 18.5306122 104.45 18.5306122 104.45 23.1428571"></polygon>
                <path d="M123.83,22.7857143 C122.256231,23.493942 120.549658,23.8422222 118.83,23.8061224 C117.210533,23.8246341 115.602253,23.5303437 114.09,22.9387755 C112.688395,22.392747 111.409442,21.5632047 110.33,20.5 C109.24914,19.4319849 108.397779,18.1462561 107.83,16.7244898 C107.223018,15.1991046 106.923719,13.5644837 106.95,11.9183673 C106.928441,10.2323753 107.241385,8.55935985 107.87,7 C108.454834,5.58394048 109.323426,4.30833644 110.42,3.25510204 C111.52087,2.20985154 112.816579,1.40129142 114.23,0.87755102 C115.742653,0.317845921 117.341019,0.0379521876 118.95,0.0510204082 C120.524014,0.0488718414 122.085562,0.335755999 123.56,0.897959184 C124.971774,1.38988295 126.23801,2.23956428 127.24,3.36734694 L123.61,7.07142857 C123.103908,6.36364506 122.409935,5.81838119 121.61,5.5 C120.817384,5.1647383 119.968013,4.9913972 119.11,4.98979592 C118.223234,4.98207201 117.344601,5.16277503 116.53,5.52040816 C115.772663,5.85771505 115.091771,6.35101456 114.53,6.96938776 C113.956533,7.60393223 113.508353,8.34535709 113.21,9.15306122 C112.891323,10.0384024 112.732097,10.9752308 112.74,11.9183673 C112.731428,12.8748564 112.890602,13.8251978 113.21,14.7244898 C113.501914,15.5308005 113.943286,16.2721946 114.51,16.9081633 C115.069966,17.5210167 115.751875,18.0046156 116.51,18.3265306 C117.310255,18.6713949 118.171344,18.8450436 119.04,18.8367347 C120.002999,18.8566015 120.956531,18.6396032 121.82,18.2040816 C122.575066,17.8092312 123.229155,17.2396375 123.73,16.5408163 L127.45,20.1122449 C126.447645,21.2607713 125.212413,22.173024 123.83,22.7857143 Z" id="Shape" fill="#FFFFFF"></path>
                <path d="M152.43,11.7959184 C152.451155,13.4733072 152.145223,15.1382448 151.53,16.6938776 C150.954898,18.1226305 150.097003,19.4148913 149.01,20.4897959 C147.901033,21.5644746 146.587084,22.3946369 145.15,22.9285714 C142.047004,24.0855785 138.642996,24.0855785 135.54,22.9285714 C134.120841,22.3881664 132.824472,21.5583625 131.73,20.4897959 C130.637342,19.4197461 129.778587,18.1261884 129.21,16.6938776 C128.586662,15.1403724 128.277144,13.4744312 128.3,11.7959184 C128.272352,10.1202898 128.582077,8.45670532 129.21,6.90816327 C129.77721,5.49589807 130.636832,4.2254003 131.73,3.18367347 C132.831152,2.14372129 134.127163,1.34191451 135.54,0.826530612 C138.652344,-0.275260936 142.037656,-0.275260936 145.15,0.826530612 C146.569943,1.33944064 147.872963,2.14137387 148.98,3.18367347 C150.06708,4.23074629 150.925734,5.49981258 151.5,6.90816327 C152.129128,8.45696972 152.445443,10.1194117 152.43,11.7959184 Z M146.71,11.7959184 C146.720095,10.8625656 146.560743,9.93537311 146.24,9.06122449 C145.955485,8.2505256 145.517127,7.50501804 144.95,6.86734694 C144.386321,6.25632963 143.705565,5.77007529 142.95,5.43877551 C140.509364,4.33366091 137.651945,4.90457369 135.8,6.86734694 C135.225996,7.49978003 134.786749,8.24679875 134.51,9.06122449 C134.197225,9.93727372 134.041411,10.863584 134.05,11.7959184 C134.042034,12.7590098 134.201154,13.7159412 134.52,14.622449 C134.807982,15.4398402 135.249574,16.1920027 135.82,16.8367347 C136.379248,17.4605883 137.060606,17.957702 137.82,18.2959184 C138.631811,18.6500946 139.507167,18.8273486 140.39,18.8163265 C141.26969,18.8283444 142.141984,18.6510206 142.95,18.2959184 C143.706814,17.9530799 144.3873,17.4566024 144.95,16.8367347 C145.526972,16.1951404 145.972373,15.4422821 146.26,14.622449 C146.577315,13.7160655 146.729815,12.7581879 146.71,11.7959184 Z" id="Shape" fill="#FFFFFF"></path>
                <polygon id="Shape" fill="#FFFFFF" points="170.03 23.1428571 161.15 8.41836735 161.05 8.41836735 161.15 23.1428571 155.96 23.1428571 155.96 0.602040816 162.05 0.602040816 170.93 15.3367347 171.03 15.3367347 170.9 0.602040816 176.15 0.602040816 176.15 23.1428571"></polygon>
                <path d="M203.73,11.7959184 C203.751155,13.4733072 203.445223,15.1382448 202.83,16.6938776 C202.254898,18.1226305 201.397003,19.4148913 200.31,20.4897959 C199.209832,21.5609342 197.906404,22.3908995 196.48,22.9285714 C193.377004,24.0855785 189.972996,24.0855785 186.87,22.9285714 C185.449005,22.3858307 184.1498,21.556388 183.05,20.4897959 C181.963466,19.4166056 181.10855,18.1237004 180.54,16.6938776 C179.916662,15.1403724 179.607144,13.4744312 179.63,11.7959184 C179.602352,10.1202898 179.912077,8.45670532 180.54,6.90816327 C181.107039,5.49835527 181.96282,4.22849547 183.05,3.18367347 C184.156568,2.14590949 185.455377,1.3444754 186.87,0.826530612 C189.982344,-0.275260936 193.367656,-0.275260936 196.48,0.826530612 C197.899943,1.33944064 199.202963,2.14137387 200.31,3.18367347 C201.39708,4.23074629 202.255734,5.49981258 202.83,6.90816327 C203.448857,8.45914119 203.754954,10.121505 203.73,11.7959184 Z M198.01,11.7959184 C198.020095,10.8625656 197.860743,9.93537311 197.54,9.06122449 C197.255485,8.2505256 196.817127,7.50501804 196.25,6.86734694 C195.68521,6.25764227 195.004737,5.77159038 194.25,5.43877551 C193.436566,5.0773452 192.557132,4.89647768 191.67,4.90816327 C190.785913,4.89446215 189.909326,5.0754458 189.1,5.43877551 C188.348172,5.77688246 187.668668,6.26224232 187.1,6.86734694 C186.525996,7.49978003 186.086749,8.24679875 185.81,9.06122449 C185.497225,9.93727372 185.341411,10.863584 185.35,11.7959184 C185.342034,12.7590098 185.501154,13.7159412 185.82,14.622449 C186.107982,15.4398402 186.549574,16.1920027 187.12,16.8367347 C187.679248,17.4605883 188.360606,17.957702 189.12,18.2959184 C190.762502,18.989261 192.607498,18.989261 194.25,18.2959184 C195.006814,17.9530799 195.6873,17.4566024 196.25,16.8367347 C196.826972,16.1951404 197.272373,15.4422821 197.56,14.622449 C197.877315,13.7160655 198.029815,12.7581879 198.01,11.7959184 Z" id="Shape" fill="#FFFFFF"></path>
                <polygon id="Shape" fill="#FFFFFF" points="227.34 23.1428571 227.46 7.16326531 227.37 7.16326531 221.62 23.1428571 217.86 23.1428571 212.27 7.16326531 212.15 7.16326531 212.3 23.1428571 207.3 23.1428571 207.3 0.602040816 214.9 0.602040816 219.9 15.0816327 220.03 15.0816327 224.85 0.602040816 232.58 0.602040816 232.58 23.1428571"></polygon>
                <polygon id="Shape" fill="#FFFFFF" points="247.87 13.622449 247.87 23.1428571 242.53 23.1428571 242.53 13.622449 234.21 0.602040816 240.68 0.602040816 245.41 8.95918367 250.15 0.602040816 256.4 0.602040816"></polygon>
                <path d="M77.96,41.9285714 C77.989138,43.0784307 77.7491692,44.218807 77.26,45.255102 C76.819171,46.1518284 76.1870162,46.9363559 75.41,47.5510204 C74.6391177,48.1603649 73.7594534,48.610906 72.82,48.877551 C71.8715393,49.1611266 70.8883359,49.3054324 69.9,49.3061224 L64.53,49.3061224 L64.53,34.622449 L69.73,34.622449 C70.7407571,34.6227411 71.7478718,34.7460613 72.73,34.9897959 C73.6778894,35.2135937 74.5743732,35.6224724 75.37,36.1938776 C76.1680297,36.7773169 76.8135703,37.5516572 77.25,38.4489796 C77.7568426,39.5339129 78.0003655,40.7273781 77.96,41.9285714 Z M74.35,41.9285714 C74.3666541,41.2264463 74.2300201,40.5293345 73.95,39.8877551 C73.7069376,39.3702965 73.3429195,38.9217566 72.89,38.5816327 C72.4365487,38.2573277 71.9278778,38.0220242 71.39,37.8877551 C70.8195393,37.752156 70.235734,37.6836824 69.65,37.6836735 L67.93,37.6836735 L67.93,46.2653353 L69.57,46.2653061 C70.1762065,46.2669999 70.7804563,46.1950654 71.37,46.0510204 C71.9181386,45.9183285 72.4348677,45.6755047 72.89,45.3367347 C73.343763,44.9890646 73.7076045,44.5337373 73.95,44.0102041 C74.235907,43.3561274 74.3726725,42.6443887 74.35,41.9285714 Z" id="Shape" fill="#FFFFFF"></path>
                <polygon id="Shape" fill="#FFFFFF" points="80.26 49.3061224 80.26 34.622449 83.75 34.622449 83.75 49.3061224"></polygon>
                <path d="M94.32,38.4489796 C94.0078781,38.0514822 93.6065753,37.7364878 93.15,37.5306122 C92.7183929,37.3090474 92.2431025,37.1904167 91.76,37.1836735 C91.5254066,37.1842393 91.2912659,37.2047181 91.06,37.244898 C90.8326181,37.2814746 90.6148845,37.364791 90.42,37.4897959 C90.2306501,37.6030869 90.0670404,37.7561233 89.94,37.9387755 C89.8059767,38.1511718 89.7396109,38.4006673 89.75,38.6530612 C89.7413422,38.8708404 89.7933521,39.0866636 89.9,39.2755102 C90.0110026,39.4584291 90.1658816,39.6094449 90.35,39.7142857 C90.5732649,39.849987 90.8074434,39.9660521 91.05,40.0612245 L91.96,40.377551 C92.4466667,40.5408163 92.9566667,40.7244898 93.49,40.9285714 C94.004089,41.123914 94.4888052,41.3918269 94.93,41.7244898 C95.3629988,42.0629684 95.7294256,42.4818803 96.01,42.9591837 C96.3073868,43.522497 96.4523566,44.1564757 96.43,44.7959184 C96.4492192,45.5496846 96.2951007,46.2975613 95.98,46.9795918 C95.6864118,47.576626 95.2662484,48.0994774 94.75,48.5102041 C94.2181726,48.9140908 93.6182422,49.2149898 92.98,49.3979592 C92.3292613,49.5860111 91.6563297,49.6821442 90.98,49.6836735 C89.9561489,49.6903518 88.9396319,49.5071021 87.98,49.1428571 C87.0732824,48.812132 86.2524566,48.2746865 85.58,47.5714286 L87.86,45.2142857 C88.2405588,45.6790585 88.7146058,46.0548996 89.25,46.3163265 C89.7808215,46.6017467 90.3700676,46.7555603 90.97,46.7653061 C91.2220571,46.763954 91.4733346,46.7366041 91.72,46.6836735 C91.9484675,46.6338947 92.165628,46.5404105 92.36,46.4081633 C92.5433711,46.283663 92.6943654,46.1155803 92.8,45.9183673 C92.9077937,45.6855894 92.9624966,45.4309139 92.96,45.1734694 C92.9674283,44.9199855 92.8975447,44.6704013 92.76,44.4591837 C92.601639,44.2489088 92.404633,44.0721441 92.18,43.9387755 C91.8837779,43.7570205 91.5684629,43.609837 91.24,43.5 L89.97,43.0714286 C89.5089369,42.921352 89.0579763,42.7406951 88.62,42.5306122 C88.1878438,42.3307418 87.789547,42.0620878 87.44,41.7346939 C87.0899365,41.3994974 86.8079152,40.9973033 86.61,40.5510204 C86.3840588,40.0203946 86.2748297,39.445688 86.29,38.8673469 C86.2800942,38.1555657 86.4487733,37.4530287 86.78,36.8265306 C87.0967463,36.255956 87.5339862,35.7644794 88.06,35.3877551 C88.6059808,35.0121904 89.2116049,34.7359965 89.85,34.5714286 C90.5034609,34.4006961 91.1754597,34.314982 91.85,34.3163265 C92.6985754,34.3249521 93.539917,34.476657 94.34,34.7653061 C95.1643963,35.0570038 95.9227989,35.5150854 96.57,36.1122449 L94.32,38.4489796 Z" id="Shape" fill="#FFFFFF"></path>
                <polygon id="Shape" fill="#FFFFFF" points="104.62 37.6530612 104.62 49.3061224 101.15 49.3061224 101.15 37.6530612 97.08 37.6530612 97.08 34.5918367 108.69 34.5918367 108.69 37.6530612"></polygon>
                <path d="M117.97,49.3061224 L114.85,43.4795918 L113.66,43.4795918 L113.66,49.3061224 L110.27,49.3061224 L110.27,34.6224354 L115.76,34.622449 C116.432767,34.6212744 117.103569,34.6965685 117.76,34.8469388 C118.38968,34.9772557 118.989971,35.2264252 119.53,35.5816327 C120.051341,35.9245894 120.480902,36.3944761 120.78,36.9489796 C121.10786,37.6013243 121.266241,38.3285847 121.24,39.0612245 C121.272078,39.9664308 120.992579,40.8545329 120.45,41.5714286 C119.883433,42.272777 119.118679,42.7787643 118.26,43.0204082 L122.02,49.3061224 L117.97,49.3061224 Z M117.83,39.1020408 C117.843115,38.8080243 117.769999,38.5166969 117.62,38.2653061 C117.475591,38.0549864 117.283459,37.8834398 117.06,37.7653061 C116.824041,37.6463101 116.570769,37.5670547 116.31,37.5306122 C116.041759,37.4906786 115.771079,37.4702191 115.5,37.4693878 L113.64,37.4693878 L113.64,40.8877737 L115.3,40.8877551 C115.594754,40.8885383 115.889074,40.8646487 116.18,40.8163265 C116.462569,40.7744207 116.736318,40.6847572 116.99,40.5510204 C117.235931,40.432608 117.446491,40.2494516 117.6,40.0204082 C117.75913,39.7496425 117.838943,39.4380394 117.83,39.122449 L117.83,39.1020408 Z" id="Shape" fill="#FFFFFF"></path>
                <polygon id="Shape" fill="#FFFFFF" points="123.74 49.3061224 123.74 34.622449 127.24 34.622449 127.24 49.3061224"></polygon>
                <path d="M141.42,45.0306122 C141.451509,45.7421655 141.2888,46.4486741 140.95,47.0714286 C140.652877,47.6105014 140.226139,48.0635057 139.71,48.3877551 C139.172336,48.7311425 138.580146,48.9763057 137.96,49.1122449 C137.302432,49.2543338 136.632149,49.3261498 135.96,49.3265306 L130.23,49.3265306 L130.23,34.622449 L135.96,34.622449 C136.531313,34.6245225 137.100929,34.6860656 137.66,34.8061224 C138.21807,34.9136527 138.755155,35.1135689 139.25,35.3979592 C139.720147,35.6838844 140.117573,36.0789336 140.41,36.5510204 C140.720332,37.1136607 140.872581,37.7527379 140.85,38.3979592 C140.881749,39.1359766 140.650887,39.8608158 140.2,40.4387755 C139.753465,40.9815775 139.163333,41.3818474 138.5,41.5918367 C138.897628,41.6590751 139.282362,41.7899371 139.64,41.9795918 C139.993164,42.1575937 140.311675,42.3996235 140.58,42.6938776 C140.847606,42.993226 141.060926,43.3387382 141.21,43.7142857 C141.361079,44.1355269 141.432343,44.5822245 141.42,45.0306122 Z M137.48,38.9081633 C137.508355,38.4659431 137.292252,38.0446047 136.92,37.8163265 C136.404615,37.5591856 135.832581,37.4431474 135.26,37.4795918 L133.56,37.4795918 L133.56,40.5408163 L135.43,40.5408163 C135.961777,40.5730227 136.490018,40.4338053 136.94,40.1428571 C137.325698,39.8474663 137.530789,39.3669044 137.48,38.877551 L137.48,38.9081633 Z M137.95,44.7346939 C137.99483,44.2141363 137.731279,43.7164159 137.28,43.4693878 C136.718248,43.211268 136.105658,43.0890433 135.49,43.1122449 L133.56,43.1122449 L133.56,46.4694051 L135.56,46.4693878 C135.841487,46.4701419 136.122518,46.4462447 136.4,46.3979592 C136.675661,46.3595067 136.942846,46.2732289 137.19,46.1428571 C137.427145,46.0232808 137.627717,45.8397881 137.77,45.6122449 C137.91989,45.3355376 137.982732,45.0184775 137.95,44.7040816 L137.95,44.7346939 Z" id="Shape" fill="#FFFFFF"></path>
                <path d="M155.47,46.1836735 C155.189949,46.8906967 154.763563,47.5276654 154.22,48.0510204 C153.641415,48.5906567 152.96081,49.003881 152.22,49.2653061 C150.564856,49.8500014 148.765144,49.8500014 147.11,49.2653061 C146.3925,48.9985474 145.735804,48.5853782 145.18,48.0510204 C144.648688,47.523449 144.232898,46.8870368 143.96,46.1836735 C143.671605,45.4118446 143.529093,44.5912585 143.54,43.7653061 L143.54,34.5816327 L146.99,34.5816327 L146.99,43.4387755 C146.988701,43.8249247 147.039169,44.2094407 147.14,44.5816327 C147.237258,44.9282401 147.396614,45.2534577 147.61,45.5408163 C147.828126,45.8315941 148.113227,46.0629276 148.44,46.2142857 C148.833946,46.3897122 149.260235,46.4767099 149.69,46.4693878 C150.119965,46.4789945 150.54673,46.3918994 150.94,46.2142857 C151.272756,46.0636122 151.564508,45.8324517 151.79,45.5408163 C152.004066,45.2553249 152.160425,44.9292882 152.25,44.5816327 C152.347579,44.2089885 152.394683,43.8244633 152.39,43.4387755 L152.39,34.622449 L155.87,34.622449 L155.87,43.8061224 C155.887095,44.6174641 155.751302,45.4246042 155.47,46.1836735 Z" id="Shape" fill="#FFFFFF"></path>
                <polygon id="Shape" fill="#FFFFFF" points="164.87 37.6530612 164.87 49.3061224 161.4 49.3061224 161.4 37.6530612 157.33 37.6530612 157.33 34.5918367 168.93 34.5918367 168.93 37.6530612"></polygon>
                <polygon id="Shape" fill="#FFFFFF" points="170.52 49.3061224 170.52 34.622449 180.15 34.622449 180.15 37.6122449 173.83 37.6122449 173.83 40.3877551 179.83 40.3877551 179.83 43.2346939 173.83 43.2346939 173.83 46.2959184 180.52 46.2959184 180.52 49.3571429"></polygon>
                <path d="M196.28,41.9285714 C196.309138,43.0784307 196.069169,44.218807 195.58,45.255102 C195.142376,46.1539505 194.509676,46.9391545 193.73,47.5510204 C192.960361,48.1623769 192.080291,48.6131259 191.14,48.877551 C190.191685,49.1618092 189.208385,49.3061291 188.22,49.3061224 L182.85,49.3061224 L182.85,34.622449 L188.06,34.622449 C189.070769,34.6225465 190.077906,34.7458694 191.06,34.9897959 C192.007889,35.2135937 192.904373,35.6224724 193.7,36.1938776 C194.495073,36.7735323 195.137447,37.5446901 195.57,38.4387755 C196.078419,39.526795 196.321982,40.7239555 196.28,41.9285714 Z M192.67,41.9285714 C192.691497,41.226026 192.554649,40.5278216 192.27,39.8877551 C192.026938,39.3702965 191.66292,38.9217566 191.21,38.5816327 C190.756549,38.2573277 190.247878,38.0220242 189.71,37.8877551 C189.139539,37.752156 188.555734,37.6836824 187.97,37.6836735 L186.25,37.6836735 L186.25,46.2653586 L187.89,46.2653061 C188.496239,46.2675849 189.100557,46.1956423 189.69,46.0510204 C190.238139,45.9183285 190.754868,45.6755047 191.21,45.3367347 C191.663763,44.9890646 192.027605,44.5337373 192.27,44.0102041 C192.560727,43.3576941 192.697715,42.6447954 192.67,41.9285714 Z" id="Shape" fill="#FFFFFF"></path>
                <polygon id="Shape" fill="#FFFFFF" points="203.66 49.3061224 203.66 34.622449 213.33 34.622449 213.33 37.6122449 207.01 37.6122449 207.01 40.3877551 213.01 40.3877551 213.01 43.2346939 207.01 43.2346939 207.01 46.2959184 213.7 46.2959184 213.7 49.3571429"></polygon>
                <path d="M226.3,49.0408163 C225.282842,49.4971167 224.180954,49.7233843 223.07,49.7040816 C222.018185,49.7126136 220.973914,49.522331 219.99,49.1428571 C218.13387,48.4189627 216.656029,46.9405303 215.91,45.0612245 C215.116748,43.0265268 215.116748,40.7591875 215.91,38.7244898 C216.286872,37.8002431 216.852826,36.9687768 217.57,36.2857143 C218.287481,35.6057273 219.130565,35.078453 220.05,34.7346939 C222.009267,34.0198844 224.150733,34.0198844 226.11,34.7346939 C227.037668,35.0727413 227.864266,35.6491106 228.51,36.4081633 L226.15,38.7959184 C225.827708,38.3379105 225.383494,37.9837854 224.87,37.7755102 C224.356889,37.5546365 223.80684,37.4368382 223.25,37.4285714 C222.673282,37.4219206 222.101402,37.5365468 221.57,37.7653061 C221.072346,37.9833002 220.625806,38.3067795 220.26,38.7142857 C219.887815,39.1252825 219.598943,39.6073151 219.41,40.1326531 C219.196243,40.7058867 219.091048,41.3153099 219.1,41.9285714 C219.091164,42.5484636 219.196314,43.1645504 219.41,43.744898 C219.593065,44.273855 219.878756,44.7597243 220.25,45.1734694 C220.615138,45.5649545 221.053879,45.8773001 221.54,46.0918367 C222.06113,46.3186919 222.623544,46.4299921 223.19,46.4183673 C223.816867,46.4343517 224.438113,46.2942579 225,46.0102041 C225.489808,45.7524573 225.914285,45.3821929 226.24,44.9285714 L228.65,47.255102 C228.004921,48.0194731 227.202517,48.6292026 226.3,49.0408163 Z" id="Shape" fill="#FFFFFF"></path>
                <path d="M244.89,41.8979592 C244.901897,42.9885818 244.701349,44.0707507 244.3,45.0816327 C243.929744,46.013366 243.370892,46.8548426 242.66,47.5510204 C241.938963,48.2513911 241.084648,48.7931959 240.15,49.1428571 C239.148056,49.5198161 238.087862,49.709914 237.02,49.7040816 C235.955179,49.7125131 234.897811,49.5223142 233.9,49.1428571 C232.977141,48.7871999 232.133767,48.2458637 231.42,47.5510204 C230.709108,46.8548426 230.150256,46.013366 229.78,45.0816327 C229.378651,44.0707507 229.178103,42.9885818 229.19,41.8979592 C229.175109,40.8103767 229.375794,39.7309426 229.78,38.7244898 C230.149946,37.8074442 230.709324,36.9825772 231.42,36.3061224 C232.139,35.6306597 232.981844,35.1070032 233.9,34.7653061 C234.901147,34.4018771 235.957457,34.2222326 237.02,34.2346939 C238.08567,34.2240093 239.144961,34.4035853 240.15,34.7653061 C241.069318,35.1045329 241.912617,35.628472 242.63,36.3061224 C243.340676,36.9825772 243.900054,37.8074442 244.27,38.7244898 C244.684483,39.7287613 244.895388,40.8082753 244.89,41.8979592 Z M241.17,41.8979592 C241.174012,41.2926488 241.072428,40.6914399 240.87,40.122449 C240.67965,39.5978066 240.390936,39.1160399 240.02,38.7040816 C239.656718,38.3007355 239.213602,37.9807465 238.72,37.7653061 C237.650153,37.3162595 236.449847,37.3162595 235.38,37.7653061 C234.88938,37.9861512 234.447286,38.3054032 234.08,38.7040816 C233.702082,39.1087824 233.415395,39.5928627 233.24,40.122449 C232.833464,41.2908008 232.833464,42.566342 233.24,43.7346939 C233.425257,44.2687057 233.710557,44.7608407 234.08,45.1836735 C234.441563,45.584479 234.880864,45.9041733 235.37,46.122449 C235.896886,46.355599 236.465721,46.4737732 237.04,46.4693878 C237.611059,46.4738591 238.176648,46.3556514 238.7,46.122449 C239.192144,45.9043572 239.634752,45.5847345 240,45.1836735 C240.375774,44.7619563 240.667832,44.2698787 240.86,43.7346939 C241.062123,43.1447069 241.160304,42.522869 241.15,41.8979592 L241.17,41.8979592 Z" id="Shape" fill="#FFFFFF"></path>
                <polygon id="Shape" fill="#FFFFFF" points="256.33 49.3061224 250.54 39.7040816 250.48 39.7040816 250.56 49.3061224 247.15 49.3061224 247.15 34.622449 251.15 34.622449 256.92 44.2040816 256.98 44.2040816 256.9 34.622449 260.27 34.622449 260.27 49.3061224"></polygon>
                <path d="M278.23,41.8979592 C278.2468,42.9890168 278.046069,44.0721724 277.64,45.0816327 C277.274293,46.0133253 276.718682,46.8550547 276.01,47.5510204 C275.292454,48.2459164 274.445811,48.787168 273.52,49.1428571 C271.501243,49.8914037 269.288757,49.8914037 267.27,49.1428571 C266.348344,48.7847355 265.505423,48.2436905 264.79,47.5510204 C264.07771,46.856047 263.518642,46.0142446 263.15,45.0816327 C262.743931,44.0721724 262.5432,42.9890168 262.56,41.8979592 C262.540317,40.8099569 262.741184,39.7295424 263.15,38.7244898 C263.516466,37.8080755 264.072459,36.9831704 264.78,36.3061224 C265.50057,35.6327894 266.342978,35.1094038 267.26,34.7653061 C269.285648,34.0578213 271.484352,34.0578213 273.51,34.7653061 C274.431249,35.1067724 275.277411,35.630379 276,36.3061224 C276.707541,36.9831704 277.263534,37.8080755 277.63,38.7244898 C278.042241,39.7288001 278.246517,40.8092421 278.23,41.8979592 Z M274.52,41.8979592 C274.520809,41.2920342 274.415836,40.6908066 274.21,40.122449 C274.027998,39.5960205 273.742106,39.1132825 273.37,38.7040816 C273.006718,38.3007355 272.563602,37.9807465 272.07,37.7653061 C271.538598,37.5365468 270.966718,37.4219206 270.39,37.4285714 C269.816511,37.4218591 269.247883,37.5365157 268.72,37.7653061 C268.22938,37.9861512 267.787286,38.3054032 267.42,38.7040816 C267.047894,39.1132825 266.762002,39.5960205 266.58,40.122449 C266.380977,40.6920711 266.282782,41.293262 266.29,41.8979592 C266.282906,42.5234788 266.384476,43.1453339 266.59,43.7346939 C266.77904,44.2668924 267.063936,44.7583302 267.43,45.1836735 C267.791563,45.584479 268.230864,45.9041733 268.72,46.122449 C269.787155,46.5851898 270.992845,46.5851898 272.06,46.122449 C272.55062,45.9016039 272.992714,45.5823519 273.36,45.1836735 C273.732607,44.7613981 274.021286,44.2692923 274.21,43.7346939 C274.418929,43.1459629 274.523887,42.5240899 274.52,41.8979592 Z" id="Shape" fill="#FFFFFF"></path>
                <polygon id="Shape" fill="#FFFFFF" points="293.58 49.3061224 293.66 38.9183673 293.6 38.9183673 289.86 49.3061224 287.42 49.3061224 283.78 38.9183673 283.72 38.9183673 283.8 49.3061224 280.53 49.3061224 280.53 34.622449 285.47 34.622449 288.75 44.0408163 288.83 44.0408163 291.96 34.622449 296.96 34.622449 296.96 49.3061224"></polygon>
                <polygon id="Shape" fill="#FFFFFF" points="306.93 43.0816327 306.93 49.3061224 303.45 49.3061224 303.45 43.0816327 298.05 34.622449 302.25 34.622449 305.32 40.0612245 308.39 34.622449 312.45 34.622449"></polygon>
                <path d="M0,0.469387755 L0,49.9183673 L48.46,49.9183673 L48.46,0.469387755 L0,0.469387755 Z M39.08,40.3469388 L9.38,40.3469388 L9.38,10.0408163 L39.08,10.0408163 L39.08,40.3469388 Z" id="Shape" fill="#FED722"></path>
            </g>
        </g>
    </g>
</svg>