<?xml version="1.0" encoding="UTF-8"?>
<svg width="9px" height="190px" viewBox="0 0 9 190" version="1.1" xmlns="http://www.w3.org/2000/svg" xmlns:xlink="http://www.w3.org/1999/xlink">
    <!-- Generator: Sketch 49.3 (51167) - http://www.bohemiancoding.com/sketch -->
    <title>discover</title>
    <desc>Created with Sketch.</desc>
    <defs></defs>
    <g id="Page-1" stroke="none" stroke-width="1" fill="none" fill-rule="evenodd">
        <g id="Desktop-HD-Copy-7" transform="translate(-1310.000000, -571.000000)" fill="#FFFFFF">
            <g id="discover" transform="translate(1309.000000, 571.000000)">
                <path d="M-17.944,19.456 L-15.076,19.456 C-13.7079932,19.456 -12.6500037,19.8259963 -11.902,20.566 C-11.1539963,21.3060037 -10.78,22.3559932 -10.78,23.716 C-10.78,25.0840068 -11.1539963,26.1399963 -11.902,26.884 C-12.6500037,27.6280037 -13.7079932,28 -15.076,28 L-17.944,28 L-17.944,19.456 Z M-15.136,27.16 C-14.0319945,27.16 -13.2020028,26.8720029 -12.646,26.296 C-12.0899972,25.7199971 -11.812,24.8600057 -11.812,23.716 C-11.812,21.4359886 -12.9199889,20.296 -15.136,20.296 L-16.96,20.296 L-16.96,27.16 L-15.136,27.16 Z M-9.112,28 L-9.112,21.964 L-8.14,21.964 L-8.14,28 L-9.112,28 Z M-9.208,19.408 L-8.02,19.408 L-8.02,20.512 L-9.208,20.512 L-9.208,19.408 Z M-4.216,28.084 C-5.23200508,28.084 -6.03599704,27.8240026 -6.628,27.304 L-6.304,26.584 C-5.97599836,26.8400013 -5.64400168,27.0239994 -5.308,27.136 C-4.97199832,27.2480006 -4.59600208,27.304 -4.18,27.304 C-3.72399772,27.304 -3.37800118,27.2260008 -3.142,27.07 C-2.90599882,26.9139992 -2.788,26.6880015 -2.788,26.392 C-2.788,26.1519988 -2.8679992,25.9600007 -3.028,25.816 C-3.1880008,25.6719993 -3.45199816,25.5600004 -3.82,25.48 L-4.84,25.24 C-5.34400252,25.1279994 -5.73399862,24.9280014 -6.01,24.64 C-6.28600138,24.3519986 -6.424,24.008002 -6.424,23.608 C-6.424,23.0799974 -6.21200212,22.6500017 -5.788,22.318 C-5.36399788,21.9859983 -4.80400348,21.82 -4.108,21.82 C-3.68399788,21.82 -3.28400188,21.8879993 -2.908,22.024 C-2.53199812,22.1600007 -2.21600128,22.3559987 -1.96,22.612 L-2.284,23.32 C-2.85200284,22.8479976 -3.45999676,22.612 -4.108,22.612 C-4.54000216,22.612 -4.87399882,22.6939992 -5.11,22.858 C-5.34600118,23.0220008 -5.464,23.2519985 -5.464,23.548 C-5.464,23.7960012 -5.39000074,23.9919993 -5.242,24.136 C-5.09399926,24.2800007 -4.85600164,24.3919996 -4.528,24.472 L-3.508,24.724 C-2.9479972,24.8520006 -2.53200136,25.0499987 -2.26,25.318 C-1.98799864,25.5860013 -1.852,25.9359978 -1.852,26.368 C-1.852,26.8880026 -2.06399788,27.3039984 -2.488,27.616 C-2.91200212,27.9280016 -3.48799636,28.084 -4.216,28.084 Z M2.228,28.084 C1.64399708,28.084 1.13400218,27.9560013 0.698,27.7 C0.26199782,27.4439987 -0.07399882,27.0820023 -0.31,26.614 C-0.54600118,26.1459977 -0.664,25.6000031 -0.664,24.976 C-0.664,24.3519969 -0.5440012,23.8020024 -0.304,23.326 C-0.0639988,22.8499976 0.27799778,22.4800013 0.722,22.216 C1.16600222,21.9519987 1.68399704,21.82 2.276,21.82 C2.68400204,21.82 3.0779981,21.8899993 3.458,22.03 C3.8380019,22.1700007 4.15199876,22.3639988 4.4,22.612 L4.076,23.332 C3.77199848,23.0919988 3.47800142,22.9160006 3.194,22.804 C2.90999858,22.6919994 2.62000148,22.636 2.324,22.636 C1.70799692,22.636 1.22400176,22.8419979 0.872,23.254 C0.51999824,23.6660021 0.344,24.2399963 0.344,24.976 C0.344,25.7040036 0.51799826,26.269998 0.866,26.674 C1.21400174,27.078002 1.69999688,27.28 2.324,27.28 C2.62000148,27.28 2.90999858,27.2240006 3.194,27.112 C3.47800142,26.9999994 3.77199848,26.8240012 4.076,26.584 L4.4,27.304 C4.14399872,27.5440012 3.82200194,27.7339993 3.434,27.874 C3.04599806,28.0140007 2.64400208,28.084 2.228,28.084 Z M8.132,28.084 C7.56399716,28.084 7.06400216,27.9560013 6.632,27.7 C6.19999784,27.4439987 5.86600118,27.0800024 5.63,26.608 C5.39399882,26.1359976 5.276,25.5840032 5.276,24.952 C5.276,24.3199968 5.39399882,23.7680024 5.63,23.296 C5.86600118,22.8239976 6.19999784,22.4600013 6.632,22.204 C7.06400216,21.9479987 7.56399716,21.82 8.132,21.82 C8.70000284,21.82 9.19999784,21.9479987 9.632,22.204 C10.0640022,22.4600013 10.3979988,22.8239976 10.634,23.296 C10.8700012,23.7680024 10.988,24.3199968 10.988,24.952 C10.988,25.5840032 10.8700012,26.1359976 10.634,26.608 C10.3979988,27.0800024 10.0640022,27.4439987 9.632,27.7 C9.19999784,27.9560013 8.70000284,28.084 8.132,28.084 Z M8.132,27.28 C8.732003,27.28 9.1919984,27.082002 9.512,26.686 C9.8320016,26.289998 9.992,25.7120038 9.992,24.952 C9.992,24.2159963 9.82800164,23.646002 9.5,23.242 C9.17199836,22.837998 8.71600292,22.636 8.132,22.636 C7.53999704,22.636 7.08000164,22.837998 6.752,23.242 C6.42399836,23.646002 6.26,24.2159963 6.26,24.952 C6.26,25.7120038 6.42199838,26.289998 6.746,26.686 C7.07000162,27.082002 7.531997,27.28 8.132,27.28 Z M16.76,21.976 L17.732,21.976 L15.128,28 L14.204,28 L11.636,21.976 L12.656,21.976 L14.696,26.944 L16.76,21.976 Z M23.78,24.952 L19.352,24.952 C19.36,25.7200038 19.5379983,26.299998 19.886,26.692 C20.2340017,27.084002 20.7399967,27.28 21.404,27.28 C22.1080035,27.28 22.755997,27.0440024 23.348,26.572 L23.672,27.28 C23.4079987,27.5280012 23.0700021,27.7239993 22.658,27.868 C22.2459979,28.0120007 21.8240022,28.084 21.392,28.084 C20.4479953,28.084 19.7080027,27.8060028 19.172,27.25 C18.6359973,26.6939972 18.368,25.9320048 18.368,24.964 C18.368,24.3479969 18.4879988,23.8020024 18.728,23.326 C18.9680012,22.8499976 19.3039978,22.4800013 19.736,22.216 C20.1680022,21.9519987 20.6599972,21.82 21.212,21.82 C22.012004,21.82 22.6399977,22.0819974 23.096,22.606 C23.5520023,23.1300026 23.78,23.8519954 23.78,24.772 L23.78,24.952 Z M21.224,22.576 C20.7199975,22.576 20.3100016,22.7279985 19.994,23.032 C19.6779984,23.3360015 19.4760004,23.7639972 19.388,24.316 L22.904,24.316 C22.8559998,23.7479972 22.6900014,23.3160015 22.406,23.02 C22.1219986,22.7239985 21.7280025,22.576 21.224,22.576 Z M28.064,21.82 C28.264001,21.82 28.4479992,21.8439998 28.616,21.892 L28.592,22.78 C28.4079991,22.7159997 28.1960012,22.684 27.956,22.684 C27.3719971,22.684 26.9380014,22.8659982 26.654,23.23 C26.3699986,23.5940018 26.228,24.0359974 26.228,24.556 L26.228,28 L25.256,28 L25.256,23.656 C25.256,23.0319969 25.2240003,22.4680025 25.16,21.964 L26.084,21.964 L26.18,23.08 C26.3320008,22.671998 26.5759983,22.3600011 26.912,22.144 C27.2480017,21.9279989 27.6319978,21.82 28.064,21.82 Z" id="Discover" transform="translate(5.336000, 23.746000) rotate(90.000000) translate(-5.336000, -23.746000) "></path>
                <path d="M62,128 L62,126 L65,128.5 L62,131 L62,129 L-57,129 L-57,128 L62,128 Z" id="Combined-Shape" transform="translate(4.000000, 128.500000) rotate(90.000000) translate(-4.000000, -128.500000) "></path>
            </g>
        </g>
    </g>
</svg>