<?xml version="1.0" encoding="UTF-8"?>
<svg width="53px" height="50px" viewBox="0 0 53 50" version="1.1" xmlns="http://www.w3.org/2000/svg" xmlns:xlink="http://www.w3.org/1999/xlink">
    <!-- Generator: Sketch 49.3 (51167) - http://www.bohemiancoding.com/sketch -->
    <title>linkedin-icon-1</title>
    <desc>Created with Sketch.</desc>
    <defs></defs>
    <g id="Page-1" stroke="none" stroke-width="1" fill="none" fill-rule="evenodd">
        <g id="Desktop-HD-Copy-11" transform="translate(-166.000000, -4917.000000)" fill="#FFFFFF" fill-rule="nonzero">
            <g id="linkedin-icon-1" transform="translate(166.000000, 4917.000000)">
                <path d="M0,5.80808081 C0,4.12454545 0.589242424,2.73565657 1.76767677,1.64141414 C2.94611111,0.547121212 4.47813131,0 6.36363636,0 C8.21550505,0 9.71378788,0.538686869 10.8585859,1.61616162 C12.0370202,2.72727273 12.6262626,4.17505051 12.6262626,5.95959596 C12.6262626,7.57575758 12.0538889,8.92252525 10.9090909,10 C9.73065657,11.1111111 8.18181818,11.6666667 6.26262626,11.6666667 L6.21212121,11.6666667 C4.36025253,11.6666667 2.8619697,11.1111111 1.71717172,10 C0.572373737,8.88888889 0,7.49156566 0,5.80808081 Z M0.656565657,50 L0.656565657,16.2626263 L11.8686869,16.2626263 L11.8686869,50 L0.656565657,50 Z M18.0808081,50 L29.2929293,50 L29.2929293,31.1616162 C29.2929293,29.9831313 29.4276263,29.0740404 29.6969697,28.4343434 C30.1683333,27.2895455 30.8838384,26.3215152 31.8434343,25.530303 C32.8030303,24.7390404 34.0067172,24.3434343 35.4545455,24.3434343 C39.2256061,24.3434343 41.1111111,26.8855051 41.1111111,31.969697 L41.1111111,50 L52.3232323,50 L52.3232323,30.6565657 C52.3232323,25.6733838 51.144798,21.8939394 48.7878788,19.3181818 C46.4309596,16.7424242 43.3165152,15.4545455 39.4444444,15.4545455 C35.1010101,15.4545455 31.7171717,17.3232323 29.2929293,21.0606061 L29.2929293,21.1616162 L29.2424242,21.1616162 L29.2929293,21.0606061 L29.2929293,16.2626263 L18.0808081,16.2626263 C18.1481313,17.3400505 18.1818182,20.690202 18.1818182,26.3131313 C18.1818182,31.9360101 18.1481313,39.8316162 18.0808081,50 Z" id="Shape"></path>
            </g>
        </g>
    </g>
</svg>