<?xml version="1.0" encoding="UTF-8"?>
<svg width="62px" height="50px" viewBox="0 0 62 50" version="1.1" xmlns="http://www.w3.org/2000/svg" xmlns:xlink="http://www.w3.org/1999/xlink">
    <!-- Generator: Sketch 49.3 (51167) - http://www.bohemiancoding.com/sketch -->
    <title>twitter</title>
    <desc>Created with Sketch.</desc>
    <defs></defs>
    <g id="Page-1" stroke="none" stroke-width="1" fill="none" fill-rule="evenodd">
        <g id="Desktop-HD-Copy-11" transform="translate(-334.000000, -5543.000000)" fill="#FFFFFF" fill-rule="nonzero">
            <g id="twitter" transform="translate(334.000000, 5543.000000)">
                <path d="M41.1209767,0.0110987791 L41.1209767,0 L44.0066593,0 L45.0610433,0.210876804 C45.7639845,0.347780244 46.4021643,0.527192009 46.9755827,0.749167592 C47.5490566,0.971143174 48.1039956,1.23013319 48.6403996,1.52608213 C49.176859,1.82203108 49.663374,2.12358491 50.0999445,2.43063263 C50.5327969,2.73401776 50.9212542,3.05588235 51.2653163,3.39622642 C51.6056049,3.74028857 52.136515,3.8290788 52.8579356,3.66259711 C53.5793563,3.49611543 54.3562708,3.26487236 55.1886792,2.96892342 C56.0210877,2.67297447 56.8442841,2.3400111 57.6581576,1.9700333 C58.4720866,1.60005549 58.967869,1.36514983 59.1454495,1.26526082 C59.3193119,1.16170921 59.4118202,1.10621532 59.422919,1.09877913 L59.4339623,1.08213097 L59.4894562,1.05438402 L59.5449501,1.02663707 L59.600444,0.998890122 L59.6559378,0.971143174 L59.6670366,0.954495006 L59.6836848,0.943396226 L59.7003885,0.932297447 L59.7114317,0.915649279 L59.7669256,0.89900111 L59.8224195,0.887902331 L59.8113762,0.971143174 L59.7946726,1.05438402 L59.7669256,1.13762486 L59.7391787,1.2208657 L59.7114317,1.2763596 L59.6836848,1.3318535 L59.6559378,1.41509434 C59.6374584,1.47058824 59.6189789,1.5445616 59.600444,1.63706992 C59.5819645,1.72957825 59.4062153,2.09950055 59.0732519,2.74694784 C58.7402886,3.39439512 58.3240844,4.05105438 57.8246393,4.71698113 C57.3251942,5.38290788 56.8775805,5.88601554 56.4817425,6.22641509 C56.0821865,6.57047725 55.8176471,6.8109323 55.6881243,6.94783574 C55.558657,7.08840178 55.4014428,7.21786903 55.2164262,7.33629301 L54.9389567,7.51942286 L54.8834628,7.54716981 L54.8279689,7.57491676 L54.8169256,7.59156493 L54.800222,7.60266371 L54.7835738,7.61376249 L54.772475,7.63041065 L54.7169811,7.6581576 L54.6614872,7.68590455 L54.650444,7.70255272 L54.6337403,7.7136515 L54.6170921,7.72475028 L54.6059933,7.74139845 L54.5949501,7.75804661 L54.5782464,7.76914539 L54.5615982,7.78024417 L54.5504994,7.79689234 L54.8279689,7.79689234 L56.381798,7.46392897 C57.4177026,7.24195339 58.4073252,6.97375139 59.3507214,6.65926748 L60.8490566,6.15982242 L61.0155383,6.10432852 L61.0987791,6.07658158 L61.154273,6.04883463 L61.2097669,6.02108768 L61.2652608,5.99334073 L61.3207547,5.96559378 L61.4317425,5.94894562 L61.5427303,5.93784684 L61.5427303,6.04883463 L61.5149834,6.05993341 L61.4872364,6.07658158 L61.4761931,6.09322974 L61.4594895,6.10432852 L61.4428413,6.1154273 L61.4317425,6.13207547 L61.4206992,6.14872364 L61.4039956,6.15982242 L61.3873474,6.1709212 L61.3762486,6.18756937 L61.3652053,6.20421754 L61.3485017,6.21531632 L61.3207547,6.27081021 L61.2930078,6.32630411 L61.2763596,6.33740289 C61.2689789,6.34850166 61.0340733,6.66293008 60.5715871,7.28079911 C60.1091565,7.90233074 59.859434,8.21675916 59.8224195,8.22419534 C59.7854606,8.23529412 59.7336293,8.29078801 59.6670366,8.39067703 C59.604162,8.49422863 59.2119867,8.90677026 58.490566,9.6281909 C57.7691454,10.3496115 57.0625971,10.9914539 56.3707547,11.5538291 C55.6752497,12.1198668 55.3237514,12.8153718 55.3163707,13.6403996 C55.3052719,14.4617092 55.2627081,15.3903441 55.1886792,16.4261931 C55.1147059,17.4620977 54.9759711,18.5811876 54.772475,19.7835738 C54.5690344,20.98596 54.2545505,22.3455605 53.8290788,23.8623751 C53.4036626,25.3791898 52.8856826,26.8590455 52.2752497,28.3018868 C51.6648169,29.7447281 51.0266371,31.0395671 50.3607103,32.1864595 C49.6947836,33.3333518 49.0843507,34.304495 48.5294118,35.099889 C47.9744728,35.895283 47.4103219,36.6444506 46.8368479,37.3473918 C46.2634295,38.050333 45.5383463,38.8420644 44.6615427,39.7225305 C43.7810211,40.5993341 43.300111,41.0802997 43.2187014,41.1653718 C43.1336293,41.2467814 42.7710877,41.5501665 42.1309656,42.0754717 C41.4946726,42.604495 40.8102109,43.1335183 40.0776915,43.6625971 C39.3488901,44.1879578 38.6792453,44.6263596 38.0688124,44.9778024 C37.4583796,45.3292453 36.7221976,45.7306326 35.8601554,46.18202 C35.0018868,46.6370699 34.0732519,47.0588235 33.0743618,47.4472808 C32.0754717,47.8357381 31.0210877,48.1964484 29.9112098,48.5294118 C28.8013319,48.8623751 27.7284684,49.1213651 26.6925638,49.3063263 C25.6567148,49.4912875 24.4820755,49.6485572 23.1687014,49.7780244 L21.1986681,49.9722531 L21.1986681,50 L17.5915649,50 L17.5915649,49.9722531 L17.1198668,49.9445061 C16.8054384,49.9260266 16.5464484,49.9074917 16.3429523,49.8890122 C16.1395117,49.8705327 15.3718091,49.7687569 14.0399556,49.5837958 C12.7081021,49.3988346 11.6629856,49.213818 10.9045505,49.0288568 C10.1461709,48.8438957 9.01775805,48.4923973 7.51942286,47.9744728 C6.02108768,47.4565483 4.73917869,46.9330189 3.67369589,46.4039956 C2.61193119,45.8786349 1.94600444,45.5456715 1.67591565,45.4051054 C1.40954495,45.268202 1.10987791,45.0980577 0.776914539,44.8945616 L0.277469478,44.5893452 L0.266426193,44.572697 L0.249722531,44.5615982 L0.233074362,44.5504994 L0.221975583,44.5338513 L0.166481687,44.5061043 L0.110987791,44.4783574 L0.0999445061,44.4617092 L0.0832408435,44.4506104 L0.0665926748,44.4395117 L0.0554938957,44.4228635 L0.0444506104,44.4062153 L0.0277469478,44.3951165 L0,44.3951165 L0,44.2841287 L0.0554938957,44.2952275 L0.110987791,44.3118757 L0.360710322,44.3396226 C0.527192009,44.3581021 0.980410655,44.3858491 1.72031077,44.4228635 C2.46026637,44.4598779 3.2463929,44.4598779 4.07880133,44.4228635 C4.91120977,44.3858491 5.76215316,44.3026082 6.63152053,44.173141 C7.5009434,44.0436737 8.52758047,43.8216981 9.71143174,43.5072142 C10.8953385,43.1927303 11.9830189,42.8190899 12.9745283,42.3862375 C13.9623196,41.9497225 14.6652053,41.6241398 15.0832963,41.409545 C15.4976138,41.1986681 16.1302442,40.8064928 16.9811321,40.2330744 L18.2574917,39.372919 L18.2685905,39.3562708 L18.2852386,39.345172 L18.3019423,39.3340733 L18.3129856,39.3174251 L18.3240844,39.3007769 L18.3407325,39.2896781 L18.3574362,39.2785794 L18.3684795,39.2619312 L18.4239734,39.245283 L18.4794673,39.2341842 L18.490566,39.1786903 L18.5072142,39.1231964 L18.5239179,39.1120977 L18.5349612,39.0954495 L18.09101,39.0677026 C17.795061,39.0492231 17.5083241,39.0306881 17.2308546,39.0122087 C16.9533851,38.9937292 16.5187014,38.9104883 15.9267481,38.7624861 C15.3348502,38.6144839 14.6966704,38.3925083 14.0122087,38.0965594 C13.3278024,37.8006104 12.6618757,37.4491121 12.0144284,37.0421754 C11.3670366,36.6352386 10.8990011,36.2966704 10.6104329,36.0266371 C10.3255827,35.7602109 9.95560488,35.3829079 9.50055494,34.8945616 C9.04922309,34.4025527 8.65704772,33.8975028 8.32408435,33.3795782 C7.99112098,32.8616537 7.67297447,32.2640954 7.36964484,31.5871254 L6.90899001,30.5771365 L6.88124306,30.4938957 L6.85349612,30.4106548 L6.83684795,30.3551609 L6.82574917,30.299667 L6.90899001,30.3107658 L6.99223085,30.327414 L7.60266371,30.4106548 C8.00965594,30.4661487 8.64783574,30.4846282 9.51720311,30.4661487 C10.386626,30.4476693 10.9877913,30.4106548 11.3207547,30.3551609 C11.6537181,30.299667 11.8572142,30.2626526 11.9311876,30.2441731 L12.0421754,30.2164262 L12.1809101,30.1886792 L12.3196448,30.1609323 L12.3307436,30.1442841 L12.3473918,30.1331853 L12.3640954,30.1220866 L12.3751387,30.1054384 L12.2641509,30.0776915 L12.1531632,30.0499445 L12.0421754,30.0221976 L11.9311876,29.9944506 L11.8201998,29.9667037 C11.7462264,29.9482242 11.6167592,29.9112098 11.4317425,29.8557159 C11.2467814,29.800222 10.7473363,29.5967259 9.93340733,29.245283 C9.11953385,28.8938402 8.47208657,28.5516093 7.99112098,28.2186459 C7.50896312,27.8847174 7.0492268,27.5195237 6.61487236,27.1254162 C6.18201998,26.7258602 5.70665927,26.2115982 5.18867925,25.5826859 C4.67075472,24.9537736 4.20832408,24.2230855 3.80133185,23.390677 C3.39439512,22.5582686 3.08917869,21.7628746 2.88568257,21.0044395 C2.68300476,20.2504657 2.54928766,19.4796282 2.48618202,18.7014428 L2.38623751,17.536071 L2.44173141,17.5471698 L2.49722531,17.563818 L2.5527192,17.5915649 L2.6082131,17.6193119 L2.66370699,17.6470588 L2.71920089,17.6748058 L3.57935627,18.063263 C4.15283019,18.3222531 4.86498335,18.5442286 5.71587125,18.7291898 C6.56681465,18.9141509 7.0754717,19.0159267 7.24195339,19.0344062 L7.49167592,19.0621532 L7.99112098,19.0621532 L7.98007769,19.045505 L7.96337403,19.0344062 L7.94672586,19.0233074 L7.93562708,19.0066593 L7.9245838,18.9900111 L7.90788013,18.9789123 L7.89123196,18.9678135 L7.88013319,18.9511654 L7.82463929,18.9234184 L7.76914539,18.8956715 L7.75810211,18.8790233 L7.74139845,18.8679245 L7.72475028,18.8568257 L7.7136515,18.8401776 L7.6581576,18.8124306 L7.60266371,18.7846837 L7.59162042,18.7680355 C7.58052164,18.7605993 7.42142064,18.6422309 7.11431743,18.4128746 C6.8109323,18.1798002 6.49278579,17.8783019 6.15982242,17.5083241 C5.82685905,17.1383463 5.49389567,16.749889 5.1609323,16.3429523 C4.82735588,15.9350831 4.53024689,15.4987043 4.27302997,15.0388457 C4.01409545,14.5764151 3.74028857,13.9881243 3.45172031,13.2741398 C3.16687014,12.563818 2.95044395,11.8479467 2.80244173,11.1265261 C2.65449501,10.4051054 2.57125416,9.69295228 2.5527192,8.9900111 C2.53423973,8.28706992 2.5527192,7.68590455 2.6082131,7.18645949 C2.66370699,6.68701443 2.77469478,6.12280799 2.94117647,5.49389567 C3.10765816,4.86498335 3.3481687,4.1990566 3.66259711,3.49611543 L4.13429523,2.44173141 L4.16204218,2.35849057 L4.18978912,2.27524972 L4.20649279,2.26415094 L4.21753607,2.24750277 L4.22863485,2.23085461 L4.24528302,2.21975583 L4.26198668,2.23085461 L4.27302997,2.24750277 L4.28412875,2.26415094 L4.30077691,2.27524972 L4.31748058,2.2863485 L4.32852386,2.30299667 L4.33962264,2.31964484 L4.35627081,2.33074362 L4.38401776,2.38623751 L4.41176471,2.44173141 L4.42846837,2.45283019 L4.43951165,2.46947836 L5.18867925,3.30188679 C5.68812431,3.85682575 6.28007769,4.47652608 6.96448391,5.1609323 C7.64894562,5.84533851 8.02813541,6.20049945 8.10210877,6.22641509 C8.17613762,6.25599334 8.26859046,6.34106548 8.37957825,6.48168701 C8.49056604,6.61859046 8.86054384,6.94600444 9.48945616,7.46392897 C10.118424,7.9818535 10.9415649,8.58307436 11.9589345,9.26748058 C12.9763596,9.95188679 14.104717,10.627081 15.3440622,11.2930078 C16.5834628,11.9589345 17.9153163,12.5600999 19.3396226,13.0965594 C20.7639845,13.6330189 21.7628746,13.9844617 22.336293,14.1509434 C22.9097669,14.3174251 23.8901221,14.5301332 25.2774695,14.7891232 C26.6648169,15.0481132 27.7099889,15.2145949 28.4128746,15.2885683 C29.1158158,15.3625416 29.5967814,15.4051054 29.8557159,15.4162042 L30.2441731,15.427303 L30.2331299,15.3440622 L30.2164262,15.2608213 L30.1054384,14.5671476 C30.031465,14.104717 29.9944506,13.4572697 29.9944506,12.6248613 C29.9944506,11.7924528 30.059212,11.0248058 30.1886792,10.3218646 C30.318202,9.61892342 30.5124306,8.90677026 30.7713651,8.18534961 C31.0303552,7.46392897 31.2837958,6.88490566 31.5316315,6.44839068 C31.7832408,6.01553829 32.1124861,5.52164262 32.5194229,4.96670366 C32.9264151,4.41176471 33.4536071,3.83834628 34.1009989,3.2463929 C34.7484462,2.65443951 35.4883463,2.1272475 36.3207547,1.66481687 C37.1531632,1.20238624 37.9208657,0.850887902 38.6237514,0.610432852 C39.3266926,0.369977802 39.9186459,0.212708102 40.399556,0.138734739 C40.8805216,0.0647613762 41.1209767,0.0221975583 41.1209767,0.0110987791 Z" id="Shape"></path>
            </g>
        </g>
    </g>
</svg>