<?xml version="1.0" encoding="UTF-8"?>
<svg width="248px" height="51px" viewBox="0 0 248 51" version="1.1" xmlns="http://www.w3.org/2000/svg" xmlns:xlink="http://www.w3.org/1999/xlink">
    <!-- Generator: Sketch 49.3 (51167) - http://www.bohemiancoding.com/sketch -->
    <title>upground-logo-bold</title>
    <desc>Created with Sketch.</desc>
    <defs></defs>
    <g id="Page-1" stroke="none" stroke-width="1" fill="none" fill-rule="evenodd">
        <g id="Artboard" transform="translate(-890.000000, -901.000000)" fill-rule="nonzero">
            <g id="upground-logo-bold" transform="translate(890.000000, 901.000000)">
                <path d="M81.0947728,10.03 C82.7170537,10.03 84.2732881,10.2755531 85.7635228,10.7666667 C87.2537575,11.2577802 88.640221,11.9377734 89.9229547,12.8066667 L89.9229547,11.3333333 L96.4875001,11.3333333 L96.4875001,35.53 C96.4875001,37.6833441 96.0819359,39.6949906 95.2707956,41.565 C94.4596551,43.4350093 93.3655751,45.0594376 91.9885228,46.4383333 C90.6114704,47.8172292 88.9892139,48.9127738 87.1217047,49.725 C85.2541953,50.5372262 83.2452381,50.9433333 81.0947728,50.9433333 C77.8879386,50.9055554 75.1150118,50.11223 72.7759092,48.5633333 C70.4368066,47.0144367 68.6070522,45.2011215 67.286591,43.1233333 L71.2479547,38.9866667 C72.9456904,41.0644548 74.5490835,42.4811073 76.0581819,43.2366667 C77.5672804,43.992226 79.2461272,44.37 81.0947728,44.37 C83.0188734,44.37 84.7354471,43.803339 86.2445456,42.67 C87.753644,41.536661 88.8099971,40.1200085 89.4136365,38.42 C88.2063577,39.1755593 86.9047798,39.7705534 85.5088637,40.205 C84.1129477,40.6394466 82.6415988,40.8566667 81.0947728,40.8566667 C79.5102195,40.8566667 78.0011436,40.6300023 76.5675001,40.1766667 C74.6056721,39.4966633 72.8419397,38.5144509 71.2762501,37.23 C69.7105604,35.9455491 68.4372777,34.4344531 67.4563637,32.6966667 C66.2868124,30.5055446 65.7020456,28.087791 65.7020456,25.4433333 C65.7020456,23.2899892 66.1076096,21.2783426 66.9187501,19.4083333 C67.7298905,17.538324 68.8239704,15.9138958 70.2010228,14.535 C71.5780751,13.1561043 73.2003316,12.0605597 75.067841,11.2483333 C76.9353503,10.4361071 78.9443075,10.03 81.0947728,10.03 Z M72.266591,25.4433333 C72.266591,26.6522283 72.5023841,27.7949947 72.9739774,28.8716667 C73.4455706,29.9483387 74.0774962,30.8833294 74.8697728,31.6766667 C75.6620495,32.470004 76.5957901,33.1027755 77.6710228,33.575 C78.7462554,34.0472245 79.8874941,34.2833333 81.0947728,34.2833333 C82.2643241,34.2455554 83.396131,34.0094467 84.4902274,33.575 C85.5843238,33.1405533 86.5369278,32.5172263 87.3480683,31.705 C88.1592087,30.8927738 88.7911342,29.92945 89.2438637,28.815 C89.6965933,27.7005499 89.9229547,26.4444514 89.9229547,25.0466667 C89.9229547,23.9511056 89.7343202,22.9500045 89.3570456,22.0433333 C88.6024963,20.4566587 87.4989846,19.1533384 86.0464774,18.1333333 C84.5939701,17.1133282 82.9434184,16.6033333 81.0947728,16.6033333 C79.8874941,16.6033333 78.7462554,16.839442 77.6710228,17.3116667 C76.5957901,17.7838912 75.6620495,18.4166627 74.8697728,19.21 C74.0774962,20.0033373 73.4455706,20.938328 72.9739774,22.015 C72.5023841,23.0916721 72.266591,24.2344384 72.266591,25.4433333 Z M101.908909,11.3333333 L108.473455,11.3333333 L108.473455,14.1666667 C109.831643,13.2222175 111.378446,12.4950026 113.113909,11.985 C114.849372,11.4749975 116.754581,11.22 118.829591,11.22 L118.829591,17.7933333 C117.395947,17.7933333 116.056643,18.0294421 114.811636,18.5016667 C113.566631,18.9738913 112.47255,19.616107 111.529364,20.4283333 C110.586177,21.2405596 109.841071,22.1849947 109.294023,23.2616667 C108.746975,24.3383387 108.473455,25.4811051 108.473455,26.69 L108.473455,39.6666667 L101.908909,39.6666667 L101.908909,11.3333333 Z M120.289636,25.4433333 C120.289636,23.2899892 120.695201,21.2783426 121.506341,19.4083333 C122.317481,17.538324 123.420994,15.9138958 124.816909,14.535 C126.212826,13.1561043 127.844514,12.0605597 129.712023,11.2483333 C131.579532,10.4361071 133.58849,10.03 135.738955,10.03 C137.88942,10.03 139.898377,10.4361071 141.765886,11.2483333 C143.633395,12.0605597 145.255652,13.1561043 146.632705,14.535 C148.009757,15.9138958 149.103837,17.538324 149.914977,19.4083333 C150.726117,21.2783426 151.131682,23.2899892 151.131682,25.4433333 C151.131682,27.5966774 150.726117,29.6083239 149.914977,31.4783333 C149.103837,33.3483426 148.009757,34.9727709 146.632705,36.3516667 C145.255652,37.7305625 143.633395,38.8261071 141.765886,39.6383333 C139.898377,40.4505597 137.88942,40.8566667 135.738955,40.8566667 C133.58849,40.8566667 131.579532,40.4505597 129.712023,39.6383333 C127.844514,38.8261071 126.212826,37.7305625 124.816909,36.3516667 C123.420994,34.9727709 122.317481,33.3483426 121.506341,31.4783333 C120.695201,29.6083239 120.289636,27.5966774 120.289636,25.4433333 Z M126.910773,25.4433333 C126.910773,26.6522283 127.146566,27.7949947 127.618159,28.8716667 C128.089753,29.9483387 128.721678,30.8833294 129.513955,31.6766667 C130.306232,32.470004 131.239972,33.1027755 132.315205,33.575 C133.390437,34.0472245 134.531676,34.2833333 135.738955,34.2833333 C136.946233,34.2833333 138.087472,34.0472245 139.162705,33.575 C140.237937,33.1027755 141.171678,32.470004 141.963955,31.6766667 C142.756232,30.8833294 143.388156,29.9483387 143.85975,28.8716667 C144.331344,27.7949947 144.567136,26.6522283 144.567136,25.4433333 C144.567136,24.2344384 144.331344,23.0916721 143.85975,22.015 C143.388156,20.938328 142.756232,20.0033373 141.963955,19.21 C141.171678,18.4166627 140.237937,17.7838912 139.162705,17.3116667 C138.087472,16.839442 136.946233,16.6033333 135.738955,16.6033333 C134.531676,16.6033333 133.390437,16.839442 132.315205,17.3116667 C131.239972,17.7838912 130.306232,18.4166627 129.513955,19.21 C128.721678,20.0033373 128.089753,20.938328 127.618159,22.015 C127.146566,23.0916721 126.910773,24.2344384 126.910773,25.4433333 Z M174.775364,11.3333333 L181.339909,11.3333333 L181.339909,26.7466667 C181.339909,28.5222311 181.000367,30.1844367 180.321273,31.7333333 C179.642178,33.28223 178.727301,34.6516608 177.576614,35.8416667 C176.425926,37.0316726 175.067758,37.9666633 173.502068,38.6466667 C171.936379,39.3266701 170.266964,39.6666667 168.493773,39.6666667 C166.720583,39.6666667 165.060599,39.3266701 163.513773,38.6466667 C161.966947,37.9666633 160.599347,37.0316726 159.410932,35.8416667 C158.222517,34.6516608 157.288776,33.2727856 156.609682,31.705 C155.930588,30.1372143 155.591045,28.4655644 155.591045,26.69 L155.591045,11.3333333 L162.155591,11.3333333 L162.155591,26.7466667 C162.155591,27.6155599 162.325363,28.427774 162.664909,29.1833333 C163.004457,29.9388927 163.45718,30.5999972 164.023091,31.1666667 C164.589003,31.7333362 165.258655,32.1772207 166.032068,32.4983333 C166.805481,32.8194461 167.626042,32.98 168.493773,32.98 C169.361505,32.98 170.172633,32.8194461 170.927182,32.4983333 C171.681731,32.1772207 172.341952,31.7333362 172.907864,31.1666667 C173.473776,30.5999972 173.926499,29.9388927 174.266045,29.1833333 C174.605593,28.427774 174.775364,27.6155599 174.775364,26.7466667 L174.775364,11.3333333 Z M205.436318,22.95 C205.436318,22.1188847 205.275979,21.3255593 204.955295,20.57 C204.634612,19.8144407 204.191322,19.1533362 203.625409,18.5866667 C203.059498,18.0199972 202.399276,17.5666684 201.644727,17.2266667 C200.890178,16.886665 200.07905,16.7166667 199.211318,16.7166667 C198.343587,16.7166667 197.532458,16.8961094 196.777909,17.255 C196.02336,17.6138906 195.36314,18.0766638 194.797227,18.6433333 C194.231316,19.2100028 193.778593,19.8711073 193.439045,20.6266667 C193.099499,21.382226 192.929727,22.1566627 192.929727,22.95 L192.986318,39.6666667 L186.365182,39.6666667 L186.365182,11.3333333 L192.929727,11.3333333 L192.929727,12.9766667 C193.684276,12.0322175 194.589722,11.3144469 195.646091,10.8233333 C196.70246,10.3322198 197.890858,10.067778 199.211318,10.03 C200.946781,10.03 202.597333,10.3699966 204.163023,11.05 C205.728712,11.7300034 207.105744,12.6555497 208.294159,13.8266667 C209.482574,14.9977836 210.416315,16.3672143 211.095409,17.935 C211.774503,19.5027856 212.114045,21.1744356 212.114045,22.95 L212.170636,39.6666667 L205.492909,39.6666667 L205.436318,22.95 Z M247.981364,25.4433333 C247.981364,27.6344554 247.585232,29.6649907 246.792955,31.535 C246.000678,33.4050094 244.906598,35.0294376 243.510682,36.4083333 C242.114766,37.7872291 240.483077,38.8733294 238.615568,39.6666667 C236.748059,40.460004 234.739102,40.8566667 232.588636,40.8566667 C230.438172,40.8566667 228.429214,40.4505597 226.561705,39.6383333 C224.694195,38.8261071 223.071939,37.7305625 221.694886,36.3516667 C220.317834,34.9727709 219.223754,33.3483426 218.412614,31.4783333 C217.601473,29.6083239 217.195909,27.5966774 217.195909,25.4433333 C217.195909,23.2899892 217.601473,21.2783426 218.412614,19.4083333 C219.223754,17.538324 220.317834,15.9138958 221.694886,14.535 C223.071939,13.1561043 224.694195,12.0605597 226.561705,11.2483333 C228.429214,10.436107 230.438172,10.03 232.588636,10.03 C233.418641,10.03 234.248632,10.1244435 235.078636,10.3133333 C235.908641,10.5022232 236.710337,10.7477763 237.48375,11.05 C238.257163,11.3522237 238.983406,11.7016646 239.6625,12.0983333 C240.341594,12.495002 240.926361,12.9199977 241.416818,13.3733333 L241.416818,0 L247.981364,0 L247.981364,25.4433333 Z M241.416818,25.4433333 C241.416818,24.2344384 241.181025,23.0916721 240.709432,22.015 C240.237838,20.938328 239.605914,20.0033373 238.813636,19.21 C238.02136,18.4166627 237.087619,17.7838912 236.012386,17.3116667 C234.937153,16.839442 233.795915,16.6033333 232.588636,16.6033333 C231.381358,16.6033333 230.240119,16.839442 229.164886,17.3116667 C228.089653,17.7838912 227.155914,18.4166627 226.363636,19.21 C225.57136,20.0033373 224.939434,20.938328 224.467841,22.015 C223.996247,23.0916721 223.760455,24.2344384 223.760455,25.4433333 C223.760455,26.6522283 223.996247,27.7949947 224.467841,28.8716667 C224.939434,29.9483387 225.57136,30.8833294 226.363636,31.6766667 C227.155914,32.470004 228.089653,33.1027755 229.164886,33.575 C230.240119,34.0472245 231.381358,34.2833333 232.588636,34.2833333 C233.795915,34.2833333 234.937153,34.0472245 236.012386,33.575 C237.087619,33.1027755 238.02136,32.470004 238.813636,31.6766667 C239.605914,30.8833294 240.237838,29.9483387 240.709432,28.8716667 C241.181025,27.7949947 241.416818,26.6522283 241.416818,25.4433333 Z" id="ground" fill="#FFFFFF"></path>
                <path d="M19.4106818,11.3333333 L25.9752273,11.3333333 L25.9752273,26.7466667 C25.9752273,28.5222311 25.6356852,30.1844367 24.9565909,31.7333333 C24.2774966,33.28223 23.3626194,34.6516607 22.2119318,35.8416667 C21.0612443,37.0316726 19.7030761,37.9666633 18.1373864,38.6466667 C16.5716968,39.3266701 14.9022816,39.6666667 13.1290909,39.6666667 C11.3559002,39.6666667 9.69591682,39.3266701 8.14909091,38.6466667 C6.60226499,37.9666633 5.23466503,37.0316726 4.04625,35.8416667 C2.85783497,34.6516607 1.9240943,33.2727856 1.245,31.705 C0.565905695,30.1372143 0.226363636,28.4655644 0.226363636,26.69 L0.226363636,11.3333333 L6.79090909,11.3333333 L6.79090909,26.7466667 C6.79090909,27.6155599 6.96068012,28.427774 7.30022727,29.1833333 C7.63977442,29.9388927 8.09249717,30.5999972 8.65840909,31.1666667 C9.22432101,31.7333362 9.89397341,32.1772206 10.6673864,32.4983333 C11.4407994,32.819446 12.2613593,32.98 13.1290909,32.98 C13.9968225,32.98 14.8079508,32.819446 15.5625,32.4983333 C16.3170492,32.1772206 16.9772699,31.7333362 17.5431818,31.1666667 C18.1090937,30.5999972 18.5618165,29.9388927 18.9013636,29.1833333 C19.2409108,28.427774 19.4106818,27.6155599 19.4106818,26.7466667 L19.4106818,11.3333333 Z M31.3400455,25.5 C31.3400455,23.3088779 31.7361779,21.2783426 32.5284545,19.4083333 C33.3207312,17.5383239 34.4148112,15.9138957 35.8107273,14.535 C37.2066433,13.1561042 38.8383315,12.070004 40.7058409,11.2766667 C42.5733502,10.4833294 44.5823074,10.0866667 46.7327727,10.0866667 C48.883238,10.0866667 50.8921952,10.4927737 52.7597045,11.305 C54.6272138,12.1172262 56.2494703,13.2127708 57.6265227,14.5916667 C59.003575,15.9705624 60.097655,17.5949906 60.9087955,19.465 C61.7199358,21.3350093 62.1255,23.3466559 62.1255,25.5 C62.1255,27.6533441 61.7199358,29.6649906 60.9087955,31.535 C60.097655,33.4050093 59.003575,35.0294375 57.6265227,36.4083333 C56.2494703,37.7872291 54.6272138,38.8827737 52.7597045,39.695 C50.8921952,40.5072262 48.883238,40.9133333 46.7327727,40.9133333 C45.9027686,40.9133333 45.0727769,40.8188898 44.2427727,40.63 C43.4127686,40.4411102 42.611072,40.1955571 41.8376591,39.8933333 C41.0642461,39.5911096 40.3380034,39.2416686 39.6589091,38.845 C38.9798148,38.4483313 38.3950479,38.0233356 37.9045909,37.57 L37.9045909,50.8866667 L31.3400455,50.8866667 L31.3400455,25.5 Z M37.9045909,25.5 C37.9045909,26.7088949 38.1403839,27.8516612 38.6119773,28.9283333 C39.0835705,30.0050053 39.715496,30.939996 40.5077727,31.7333333 C41.3000494,32.5266706 42.23379,33.159442 43.3090227,33.6316667 C44.3842553,34.1038912 45.525494,34.34 46.7327727,34.34 C47.9400515,34.34 49.08129,34.1038912 50.1565227,33.6316667 C51.2317553,33.159442 52.165496,32.5266706 52.9577727,31.7333333 C53.7500494,30.939996 54.3819749,30.0050053 54.8535682,28.9283333 C55.3251614,27.8516612 55.5609545,26.7088949 55.5609545,25.5 C55.5609545,24.2911051 55.3251614,23.1483387 54.8535682,22.0716667 C54.3819749,20.9949946 53.7500494,20.060004 52.9577727,19.2666667 C52.165496,18.4733294 51.2317553,17.8405579 50.1565227,17.3683333 C49.08129,16.8961087 47.9400515,16.66 46.7327727,16.66 C45.525494,16.66 44.3842553,16.8961087 43.3090227,17.3683333 C42.23379,17.8405579 41.3000494,18.4733294 40.5077727,19.2666667 C39.715496,20.060004 39.0835705,20.9949946 38.6119773,22.0716667 C38.1403839,23.1483387 37.9045909,24.2911051 37.9045909,25.5 Z" id="up" fill="#2457B7"></path>
            </g>
        </g>
    </g>
</svg>